<?xml version="1.0" encoding="UTF-8" standalone="no"?>
<!DOCTYPE svg PUBLIC "-//W3C//DTD SVG 1.1//EN" "http://www.w3.org/Graphics/SVG/1.1/DTD/svg11.dtd">
<svg width="100%" height="100%" viewBox="0 0 62 62" version="1.1" xmlns="http://www.w3.org/2000/svg" xmlns:xlink="http://www.w3.org/1999/xlink" xml:space="preserve" xmlns:serif="http://www.serif.com/" style="fill-rule:evenodd;clip-rule:evenodd;stroke-linejoin:round;stroke-miterlimit:2;">
    <g transform="matrix(1,0,0,1,-21,-8)">
        <path d="M74.101,51.875C72.616,52.623 71.131,53.372 69.641,54.21C69.224,54.418 68.66,54.845 68.501,55.337C68.394,55.695 68.429,55.923 68.847,55.715C70.935,54.678 73.07,53.596 75.162,52.468C76.88,51.594 78.869,50.733 79.857,48.965C79.904,48.922 79.96,48.697 79.874,48.603C79.096,47.751 77.7,47.551 76.674,47.187C75.38,46.719 74.039,46.295 72.746,45.828C70.068,44.889 67.39,43.95 64.618,43.098C64.26,42.991 63.396,44.039 63.664,44.142C66.156,45.163 68.653,46.094 71.149,47.024C72.352,47.487 73.603,47.907 74.849,48.418C75.34,48.576 75.923,48.739 76.457,48.945C63.245,46.345 49.308,47.702 36.639,52.064C32.953,53.346 28.448,54.682 25.946,57.832C25.799,58.052 25.417,58.488 25.77,58.685C26.081,58.836 26.748,58.141 26.89,58.011C28.137,56.527 30.07,55.89 31.779,55.197C33.256,54.63 34.781,54.02 36.254,53.543C39.337,52.55 42.46,51.696 45.617,51.07C51.932,49.817 58.438,49.344 64.863,49.638C68.573,49.808 72.185,50.155 75.831,50.73C76.237,50.794 77.187,49.84 77.298,49.392C77.609,49.542 77.872,49.735 78.088,49.972C77.615,50.404 76.512,50.716 76.047,50.967C75.586,51.127 74.799,51.499 74.101,51.875Z" style="fill-rule:nonzero;"/>
        <path d="M40.985,20.523C43.368,29.882 37.316,38.265 31.83,45.178C31.684,45.398 31.207,45.921 31.56,46.118C31.871,46.269 32.632,45.487 32.822,45.315C38.406,38.225 45.349,29.202 42.117,19.577C41.995,19.254 40.821,20.152 40.985,20.523Z" style="fill-rule:nonzero;"/>
        <path d="M42.311,17.319C44.644,20.826 46.835,24.463 49.401,27.846C49.699,28.267 51.493,26.717 51.156,26.158C49.721,23.825 48.144,21.621 46.572,19.327C45.807,18.204 45.042,17.081 44.278,15.958C43.768,15.209 43.192,13.913 42.158,13.729C40.36,13.375 38.611,15.925 37.739,17.155C36.286,19.174 34.997,21.563 34.209,23.93C34.05,24.422 34.649,24.223 34.881,24.097C35.394,23.803 35.914,23.328 36.163,22.841C37.499,20.408 38.878,18.023 40.17,15.543C40.218,15.5 40.355,15.461 40.403,15.417C41.182,15.226 41.926,16.802 42.311,17.319Z" style="fill-rule:nonzero;"/>
    </g>
</svg>
