<?xml version="1.0" encoding="UTF-8" standalone="no"?>
<!DOCTYPE svg PUBLIC "-//W3C//DTD SVG 1.1//EN" "http://www.w3.org/Graphics/SVG/1.1/DTD/svg11.dtd">
<svg width="100%" height="100%" viewBox="0 0 24 24" version="1.1" xmlns="http://www.w3.org/2000/svg" xmlns:xlink="http://www.w3.org/1999/xlink" xml:space="preserve" xmlns:serif="http://www.serif.com/" style="fill-rule:evenodd;clip-rule:evenodd;stroke-linejoin:round;stroke-miterlimit:2;">
    <g transform="matrix(0.929342,0,0,1,1,0)">
        <path d="M24,6.468C24,2.898 20.881,0 17.04,0L6.96,0C3.119,0 0,2.898 0,6.468L0,17.532C0,21.102 3.119,24 6.96,24L17.04,24C20.881,24 24,21.102 24,17.532L24,6.468Z" style="fill:white;"/>
    </g>
    <g>
        <g>
            <path d="M19.6,23.5L4.2,23.5C2.1,23.5 0.4,21.8 0.4,19.7L0.4,4.3C0.4,2.2 2.1,0.5 4.2,0.5L19.5,0.5C21.6,0.5 23.3,2.2 23.3,4.3L23.3,19.6C23.4,21.8 21.7,23.5 19.6,23.5ZM4.2,1.5C2.6,1.5 1.4,2.8 1.4,4.3L1.4,19.6C1.4,21.2 2.7,22.4 4.2,22.4L19.5,22.4C21.1,22.4 22.3,21.1 22.3,19.6L22.3,4.3C22.3,2.7 21,1.5 19.5,1.5L4.2,1.5Z" style="fill-rule:nonzero;"/>
        </g>
        <g>
            <g>
                <g>
                    <path d="M7.8,17.9C7.5,17.9 7.3,17.7 7.3,17.4L7.3,6.6C7.3,6.4 7.5,6.2 7.7,6.1C7.9,6 8.1,6.1 8.3,6.3L12.4,13.2C12.5,13.4 12.5,13.7 12.2,13.9C12,14 11.7,14 11.5,13.7L8.3,8.4L8.3,17.3C8.3,17.7 8,17.9 7.8,17.9Z" style="fill-rule:nonzero;"/>
                </g>
                <g>
                    <path d="M9.3,17.9L6.3,17.9C6,17.9 5.8,17.7 5.8,17.4C5.8,17.1 6,16.9 6.3,16.9L9.3,16.9C9.6,16.9 9.8,17.1 9.8,17.4C9.8,17.7 9.6,17.9 9.3,17.9Z" style="fill-rule:nonzero;"/>
                </g>
                <g>
                    <path d="M7.8,7.1L6.3,7.1C6,7.1 5.8,6.9 5.8,6.6C5.8,6.3 6,6.1 6.3,6.1L7.8,6.1C8.1,6.1 8.3,6.3 8.3,6.6C8.3,6.9 8,7.1 7.8,7.1Z" style="fill-rule:nonzero;"/>
                </g>
            </g>
            <g>
                <g>
                    <path d="M16,17.9C15.7,17.9 15.5,17.7 15.5,17.4L15.5,8.4L12.3,13.7C12.2,13.9 11.9,14 11.6,13.9C11.4,13.8 11.3,13.5 11.4,13.2L15.5,6.3C15.6,6.1 15.8,6 16.1,6.1C16.3,6.2 16.5,6.4 16.5,6.6L16.5,17.4C16.5,17.7 16.3,17.9 16,17.9Z" style="fill-rule:nonzero;"/>
                </g>
                <g>
                    <path d="M17.5,17.9L14.5,17.9C14.2,17.9 14,17.7 14,17.4C14,17.1 14.2,16.9 14.5,16.9L17.5,16.9C17.8,16.9 18,17.1 18,17.4C18,17.7 17.8,17.9 17.5,17.9Z" style="fill-rule:nonzero;"/>
                </g>
                <g>
                    <path d="M17.5,7.1L16,7.1C15.7,7.1 15.5,6.9 15.5,6.6C15.5,6.3 15.7,6.1 16,6.1L17.5,6.1C17.8,6.1 18,6.3 18,6.6C18,6.9 17.8,7.1 17.5,7.1Z" style="fill-rule:nonzero;"/>
                </g>
            </g>
        </g>
    </g>
</svg>
