<?xml version="1.0" encoding="UTF-8" standalone="no"?>
<!DOCTYPE svg PUBLIC "-//W3C//DTD SVG 1.1//EN" "http://www.w3.org/Graphics/SVG/1.1/DTD/svg11.dtd">
<svg width="100%" height="100%" viewBox="0 0 446 1540" version="1.1" xmlns="http://www.w3.org/2000/svg" xmlns:xlink="http://www.w3.org/1999/xlink" xml:space="preserve" xmlns:serif="http://www.serif.com/" style="fill-rule:evenodd;clip-rule:evenodd;stroke-linejoin:round;stroke-miterlimit:2;">
    <g transform="matrix(0.982284,0.187397,-0.187397,0.982284,-18.917,-211.941)">
        <path d="M483.981,653.503C393.49,285.957 384.298,166.492 383.947,161.578C383.535,155.889 384.04,151.857 385.35,150.371C386.66,148.885 388.669,150.065 390.934,153.653C393.199,157.241 395.535,162.941 397.427,169.501C399.32,176.061 400.615,182.943 401.027,188.633C401.169,190.396 410.882,304.553 496.063,650.529C531.133,792.975 568.881,898.468 605.363,1000.35C660.417,1154.24 717.364,1313.28 764.598,1593.71C765.623,1600.08 765.821,1605.5 765.149,1608.83C764.476,1612.15 762.987,1613.11 760.997,1611.51C759.008,1609.9 756.676,1605.86 754.497,1600.23C752.319,1594.6 750.466,1587.84 749.334,1581.39C705.166,1319.13 653.711,1175.39 599.203,1023.13C561.019,916.591 521.649,806.498 483.981,653.503Z" style="fill:rgb(242,211,136);fill-rule:nonzero;"/>
        <path d="M643.451,1615.48C642.468,1611.48 641.723,1607.49 641.276,1603.82C606.484,1316.37 553.31,1137.63 497.044,948.277C473.053,867.564 448.223,784.035 423.888,689.486C325.298,307.063 340.918,170.553 341.623,164.912C342.148,161.194 343.518,159.775 345.438,160.96C347.359,162.145 349.678,165.839 351.898,171.251C354.118,176.664 356.063,183.364 357.316,189.916C358.57,196.469 359.032,202.353 358.604,206.308C358.398,208.193 345.367,334.964 435.37,684.321C458.729,775.046 482.977,856.595 506.429,935.463C565.293,1133.42 620.975,1320.54 657.716,1624.2C658.344,1629.41 658.334,1633.7 657.685,1636.38C657.037,1639.06 655.789,1639.97 654.143,1638.96C652.496,1637.95 650.546,1635.09 648.607,1630.83C646.668,1626.57 644.852,1621.16 643.451,1615.48Z" style="fill:rgb(242,211,136);fill-rule:nonzero;"/>
        <path d="M252.862,415.582C236.26,347.948 221.74,280.108 209.638,213.631C208.541,207.265 208.239,201.72 208.795,198.152C209.352,194.585 210.723,193.269 212.623,194.48C214.524,195.692 216.807,199.336 218.997,204.653C221.187,209.971 223.114,216.551 224.378,223.023C277.62,513.876 352.267,710.644 418.131,884.251C439.582,940.841 459.819,994.313 477.665,1046.79C581.402,1352.37 615.809,1622.36 617.229,1633.73C617.949,1639.8 617.794,1644.56 616.798,1646.99C615.802,1649.43 614.045,1649.34 611.902,1646.75C609.76,1644.16 607.404,1639.27 605.34,1633.14C603.277,1627.01 601.67,1620.12 600.866,1613.95C600.547,1611.4 567.277,1351.82 470.563,1066.88C453.751,1017.35 433.986,965.241 413.072,910.065C362.949,777.908 303.405,620.838 252.862,415.582Z" style="fill:rgb(242,211,136);fill-rule:nonzero;"/>
        <path d="M173.921,436.887C144.036,315.502 130.039,240.279 128.79,233.464C127.674,227.053 127.359,221.456 127.912,217.854C128.465,214.251 129.843,212.923 131.756,214.149C133.668,215.375 135.966,219.06 138.166,224.427C140.365,229.795 142.294,236.426 143.547,242.924C144.171,246.368 211.678,607.81 375.397,1049.16C493.435,1367.37 556.369,1626.13 559.03,1636.69C560.575,1643.27 561.424,1649.62 561.398,1654.42C561.373,1659.21 560.475,1662.07 558.893,1662.4C557.312,1662.72 555.171,1660.48 552.921,1656.15C550.671,1651.83 548.488,1645.75 546.832,1639.19L546.431,1637.57C541.622,1618.03 479.729,1369.81 369.882,1073.69C274.942,817.849 211.739,590.492 173.921,436.887Z" style="fill:rgb(242,211,136);fill-rule:nonzero;"/>
        <path d="M148.205,573.976C100.333,379.536 81.992,249.266 80.856,241.164C79.984,234.849 79.995,229.72 80.887,226.907C81.779,224.093 83.479,223.825 85.612,226.162C87.745,228.499 90.138,233.249 92.263,239.367C94.388,245.486 96.072,252.471 96.944,258.786C97.345,261.601 137.533,545.236 254.264,896.933C376.58,1265.53 447.019,1653.84 449.924,1670.07C450.543,1673.4 450.961,1676.57 451.152,1679.4C451.343,1682.24 451.304,1684.68 451.037,1686.57C450.769,1688.47 450.28,1689.78 449.596,1690.44C448.913,1691.1 448.049,1691.09 447.057,1690.41C446.064,1689.73 444.963,1688.4 443.817,1686.49C442.671,1684.57 441.505,1682.12 440.386,1679.28C439.267,1676.43 438.218,1673.25 437.302,1669.92C436.385,1666.59 435.619,1663.17 435.049,1659.88C434.348,1656.02 364.239,1269.68 246.673,915.673C210.391,806.647 177.142,691.269 148.205,573.976Z" style="fill:rgb(242,211,136);fill-rule:nonzero;"/>
    </g>
</svg>
